<?xml version="1.0" encoding="UTF-8" standalone="no"?>
<svg
   xmlns:dc="http://purl.org/dc/elements/1.1/"
   xmlns:cc="http://creativecommons.org/ns#"
   xmlns:rdf="http://www.w3.org/1999/02/22-rdf-syntax-ns#"
   xmlns:svg="http://www.w3.org/2000/svg"
   xmlns="http://www.w3.org/2000/svg"
   xmlns:sodipodi="http://sodipodi.sourceforge.net/DTD/sodipodi-0.dtd"
   xmlns:inkscape="http://www.inkscape.org/namespaces/inkscape"
   height="48"
   width="48"
   version="1.1">
  <path
     d="m 16.904141,34.568299 q -0.754878,0.75488 -1.811708,0.75488 -1.056829,0 -1.811708,-0.75488 -0.754879,-0.754878 -0.754879,-1.811708 0,-1.05683 0.754879,-1.811708 0.754879,-0.75488 1.811708,-0.75488 1.05683,0 1.811708,0.75488 0.754879,0.754878 0.754879,1.811708 0,1.05683 -0.754879,1.811708 z m 7.649436,7.649437 q -3.925368,3.925367 -9.461144,3.925367 -5.5357756,0 -9.4611442,-3.925367 -3.925368,-3.925368 -3.925368,-9.461145 0,-5.535776 3.925368,-9.461144 3.0698397,-3.069839 7.2216702,-3.799556 4.151834,-0.729715 7.97655,1.182643 L 39.651148,1.8568967 h 6.642931 l -0.301951,10.5682993 -5.888053,0.855529 -1.05683,6.290653 -5.435125,1.006505 -6.44163,6.441632 q 1.811707,3.623417 1.182643,7.825573 -0.629066,4.202158 -3.799556,7.372648 z M 23.446421,41.11058 q 3.019515,-3.019514 3.321466,-7.095857 0.301951,-4.076346 -1.610406,-7.196511 l 7.750086,-7.750085 4.780897,-0.855529 1.107154,-6.340979 5.837728,-0.805205 0.05033,-7.6997604 H 40.355708 L 21.030818,22.691543 q -3.019514,-1.912358 -7.121021,-1.635569 -4.1015059,0.276789 -7.1713467,3.346628 -3.47244,3.472441 -3.47244,8.353989 0,4.881547 3.47244,8.353989 3.4724427,3.472441 8.3539897,3.472441 4.881549,0 8.35399,-3.472441 z"
     style="fill:#828282;fill-opacity:1" />
</svg>
