<?xml version="1.0" encoding="UTF-8" standalone="no"?>
<svg
   xmlns:dc="http://purl.org/dc/elements/1.1/"
   xmlns:cc="http://creativecommons.org/ns#"
   xmlns:rdf="http://www.w3.org/1999/02/22-rdf-syntax-ns#"
   xmlns:svg="http://www.w3.org/2000/svg"
   xmlns="http://www.w3.org/2000/svg"
   xmlns:sodipodi="http://sodipodi.sourceforge.net/DTD/sodipodi-0.dtd"
   xmlns:inkscape="http://www.inkscape.org/namespaces/inkscape"
   viewBox="0 0 250 71"
   version="1.1"
   id="svg8"
   sodipodi:docname="logo.svg"
   inkscape:version="0.92.3 (2405546, 2018-03-11)"
   width="250"
   height="71">
  <metadata
     id="metadata14">
    <rdf:RDF>
      <cc:Work
         rdf:about="">
        <dc:format>image/svg+xml</dc:format>
        <dc:type
           rdf:resource="http://purl.org/dc/dcmitype/StillImage" />
        <dc:title></dc:title>
      </cc:Work>
    </rdf:RDF>
  </metadata>
  <defs
     id="defs12" />
  <sodipodi:namedview
     pagecolor="#ffffff"
     bordercolor="#666666"
     borderopacity="1"
     objecttolerance="10"
     gridtolerance="10"
     guidetolerance="10"
     inkscape:pageopacity="0"
     inkscape:pageshadow="2"
     inkscape:window-width="1798"
     inkscape:window-height="1074"
     id="namedview10"
     showgrid="false"
     inkscape:zoom="2.4764706"
     inkscape:cx="121.14918"
     inkscape:cy="122.43942"
     inkscape:window-x="190"
     inkscape:window-y="103"
     inkscape:window-maximized="0"
     inkscape:current-layer="svg8" />
  <path
     d="m 76.327818,69.013053 h -2.869466 l -2.725994,-9.325767 c -0.143473,-0.286947 -0.143473,-0.86084 -0.286947,-1.434733 h -0.143473 c 0,0.573893 -0.143473,1.147786 -0.286947,1.434733 l -2.58252,9.325767 h -2.869467 c -1.147786,-4.73462 -2.1521,-9.612714 -2.869467,-14.347334 0.860841,-0.143473 1.865154,-0.286947 2.582521,-0.286947 l 1.72168,9.612714 c 0.143473,0.573894 0.143473,1.004314 0.143473,1.434734 h 0.143473 c 0,-0.43042 0.143474,-1.004314 0.286947,-1.434734 l 2.58252,-9.46924 h 2.439047 l 2.58252,9.46924 0.286947,1.434734 h 0.143473 l 0.143474,-1.434734 1.865153,-9.612714 c 0.717367,0 1.72168,0.143474 2.295574,0.286947 -0.43042,4.73462 -1.434734,9.612714 -2.582521,14.347334 z m 7.317141,-12.769127 c -0.86084,0 -1.434733,-0.717367 -1.434733,-1.434734 0,-0.717366 0.43042,-1.434733 1.434733,-1.434733 1.004313,0 1.434733,0.717367 1.434733,1.434733 0,0.86084 -0.43042,1.434734 -1.434733,1.434734 z m -1.147787,12.769127 v -11.19092 h 2.439047 v 11.19092 z M 94.40546,60.261179 93.401146,60.117706 c -0.86084,0 -1.578207,0.143473 -2.295573,0.86084 v 8.034507 h -2.439047 v -11.19092 c 0.717367,-0.143474 1.72168,-0.143474 2.439047,-0.143474 v 1.434734 h 0.143473 c 1.147787,-1.434734 1.865154,-1.578207 2.58252,-1.578207 0.143474,0 0.573894,0 0.86084,0.143473 -0.143473,0.86084 -0.143473,1.865154 -0.286946,2.58252 z m 12.33871,-4.878093 h -1.14779 c -0.86084,0 -1.14779,0.43042 -1.14779,1.29126 v 1.147787 h 2.43905 c 0,0.717366 0,1.434733 -0.14347,2.1521 h -2.29558 v 9.03882 h -2.43904 v -9.03882 h -1.29126 v -2.1521 h 1.29126 v -1.004314 c 0,-2.295573 1.72168,-3.730307 3.58683,-3.730307 0.43042,0 1.00431,0 1.29126,0.143474 0,0.717366 0,1.434733 -0.14347,2.1521 z m 8.89534,13.629967 V 68.00874 h -0.14347 c -1.00431,0.86084 -2.00863,1.147787 -3.01294,1.147787 -1.72168,0 -3.29989,-0.86084 -3.29989,-3.443361 v -7.891033 c 0.71737,-0.143474 1.72168,-0.143474 2.43905,-0.143474 v 7.747561 c 0,1.004313 0.43042,1.578207 1.86515,1.578207 0.86084,0 1.57821,-0.286947 2.1521,-0.573894 v -8.6084 c 0.71737,-0.143474 1.72168,-0.143474 2.43905,-0.143474 v 11.334394 z m -4.01725,-12.338707 c -0.86084,0 -1.29126,-0.573894 -1.29126,-1.434734 0,-0.717366 0.43042,-1.434733 1.29126,-1.434733 0.86084,0 1.29126,0.573893 1.29126,1.434733 0.14347,0.86084 -0.43042,1.434734 -1.29126,1.434734 z m 4.01725,0 c -0.86084,0 -1.29126,-0.573894 -1.29126,-1.434734 0,-0.717366 0.43042,-1.434733 1.29126,-1.434733 0.86084,0 1.29126,0.573893 1.29126,1.434733 0.14348,0.86084 -0.43042,1.434734 -1.29126,1.434734 z m 12.76913,12.338707 v -7.74756 c 0,-0.86084 -0.28694,-1.434734 -1.72168,-1.434734 -0.86084,0 -1.72168,0.286947 -2.29557,0.717367 v 8.608401 h -2.43905 V 53.374459 c 0.71737,-0.143473 1.72168,-0.143473 2.43905,-0.143473 v 5.882407 h 0.14347 c 1.00432,-0.86084 2.00863,-1.29126 3.15642,-1.29126 1.86515,0 3.29988,1.004313 3.29988,3.44336 V 69.3 h -2.58252 z m 11.90829,-8.751874 h -1.14779 c -0.86084,0 -1.5782,0.143474 -2.29557,0.86084 v 8.034508 h -2.43905 V 57.965606 c 0.71737,-0.143473 1.72168,-0.143473 2.43905,-0.143473 v 1.434733 h 0.14347 c 1.14779,-1.434733 1.86516,-1.578207 2.58252,-1.578207 0.14348,0 0.5739,0 0.86084,0.143474 0,0.717366 0,1.72168 -0.14347,2.439046 z m 10.90397,3.873781 h -6.31282 v 0.143473 c 0,1.865153 0.57389,2.725994 2.72599,2.725994 1.00431,0 2.29557,-0.286947 3.01294,-0.717367 0.28695,0.573893 0.43042,1.578207 0.57389,2.295573 -0.86084,0.43042 -2.58252,0.717367 -3.58683,0.717367 -3.44336,0 -5.30851,-1.865153 -5.30851,-5.738934 0,-4.017253 2.00862,-6.02588 4.73462,-6.02588 3.01294,0 4.3042,1.865153 4.3042,4.73462 -0.14348,0.573894 -0.14348,1.29126 -0.14348,1.865154 z m -6.31282,-1.72168 h 3.87378 v -0.573894 c 0,-1.578207 -0.5739,-2.295573 -1.86516,-2.295573 -1.29126,0 -2.00862,0.86084 -2.00862,2.869467 z m 15.92554,6.599773 v -7.74756 c 0,-1.004314 -0.43042,-1.434734 -1.72168,-1.434734 -0.86084,0 -1.57821,0.286947 -2.29558,0.717367 v 8.608401 h -2.43904 V 57.965606 c 0.71736,-0.143473 1.72168,-0.143473 2.43904,-0.143473 v 1.147786 h 0.14348 c 1.14778,-1.004313 2.00862,-1.29126 3.15641,-1.29126 1.72168,0 3.29989,0.86084 3.29989,3.44336 v 8.034508 h -2.58252 z m 24.39047,0 h -2.86947 l -2.72599,-9.325767 c -0.14348,-0.286947 -0.14348,-0.86084 -0.28695,-1.434733 h -0.14347 c 0,0.573893 -0.14348,1.147786 -0.28695,1.434733 l -2.58252,9.325767 h -2.86947 c -1.14779,-4.73462 -2.1521,-9.612714 -2.86947,-14.347334 0.86084,-0.143473 1.86516,-0.286947 2.58252,-0.286947 l 1.72169,9.612714 c 0.14347,0.573894 0.14347,1.004314 0.14347,1.434734 h 0.14347 c 0,-0.43042 0.14348,-1.004314 0.28695,-1.434734 l 2.58252,-9.46924 h 2.43905 l 2.58252,9.46924 0.28694,1.434734 h 0.14348 l 0.14347,-1.434734 1.86515,-9.612714 c 0.71737,0 1.72168,0.143474 2.29558,0.286947 -0.43042,4.73462 -1.57821,9.612714 -2.58252,14.347334 z m 7.03019,-12.769127 c -0.86084,0 -1.43473,-0.717367 -1.43473,-1.434734 0,-0.717366 0.43042,-1.434733 1.43473,-1.434733 1.00431,0 1.43473,0.717367 1.43473,1.434733 0,0.86084 -0.43042,1.434734 -1.43473,1.434734 z m -1.14779,12.769127 v -11.19092 h 2.43905 v 11.19092 z M 199.85837,69.3 c -1.14779,0 -2.58252,-0.286947 -3.44336,-0.717367 0.14347,-0.86084 0.28694,-1.434733 0.57389,-2.1521 0.86084,0.43042 2.1521,0.717367 3.29989,0.717367 1.00431,0 1.29126,-0.43042 1.29126,-1.147787 0,-1.865153 -5.16504,-1.004313 -5.16504,-4.73462 0,-2.439047 2.1521,-3.586834 4.44767,-3.586834 0.71737,0 1.86515,0.143474 2.72599,0.286947 0,0.717367 -0.14347,1.434733 -0.28694,2.1521 -0.71737,-0.286947 -2.00863,-0.43042 -3.01294,-0.43042 -0.86084,0 -1.29126,0.43042 -1.29126,1.147787 0,1.72168 5.02156,0.86084 5.02156,4.878093 C 204.16257,68.295687 202.15394,69.3 199.85837,69.3 Z m 9.89966,0 c -1.14779,0 -2.58252,-0.286947 -3.44336,-0.717367 0.14347,-0.86084 0.28694,-1.434733 0.57389,-2.1521 0.86084,0.43042 2.1521,0.717367 3.29989,0.717367 1.00431,0 1.29126,-0.43042 1.29126,-1.147787 0,-1.865153 -5.16504,-1.004313 -5.16504,-4.73462 0,-2.439047 2.1521,-3.586834 4.44767,-3.586834 0.71737,0 1.86515,0.143474 2.72599,0.286947 0,0.717367 -0.14347,1.434733 -0.28694,2.1521 -0.71737,-0.286947 -2.00863,-0.43042 -3.01294,-0.43042 -0.86084,0 -1.29126,0.43042 -1.29126,1.147787 0,1.72168 5.02156,0.86084 5.02156,4.878093 C 214.06223,68.295687 211.91013,69.3 209.75803,69.3 Z m 15.49512,-5.16504 h -6.31283 v 0.143473 c 0,1.865153 0.57389,2.725994 2.72599,2.725994 1.00432,0 2.29558,-0.286947 3.01295,-0.717367 0.28694,0.573893 0.43042,1.578207 0.57389,2.295573 -0.86084,0.43042 -2.58252,0.717367 -3.58684,0.717367 -3.44336,0 -5.30851,-1.865153 -5.30851,-5.738934 0,-4.017253 2.00863,-6.02588 4.73462,-6.02588 3.01294,0 4.3042,1.865153 4.3042,4.73462 -0.14347,0.573894 -0.14347,1.29126 -0.14347,1.865154 z m -6.31283,-1.72168 h 3.87378 v -0.573894 c 0,-1.578207 -0.57389,-2.295573 -1.86515,-2.295573 -1.29126,0 -2.00863,0.86084 -2.00863,2.869467 z m 15.92554,6.599773 v -7.74756 c 0,-1.004314 -0.43042,-1.434734 -1.72168,-1.434734 -0.86084,0 -1.5782,0.286947 -2.29557,0.717367 v 8.608401 h -2.43905 V 57.965606 c 0.71737,-0.143473 1.72168,-0.143473 2.43905,-0.143473 v 1.147786 h 0.14347 c 1.14779,-1.004313 2.00863,-1.29126 3.15642,-1.29126 1.72168,0 3.29988,0.86084 3.29988,3.44336 v 8.034508 h -2.58252 z M 241.75258,69.3 c -0.86084,0 -1.43473,-0.43042 -1.43473,-1.434733 0,-0.86084 0.57389,-1.434734 1.43473,-1.434734 0.71737,0 1.43474,0.43042 1.43474,1.434734 0,1.004313 -0.71737,1.434733 -1.43474,1.434733 z"
     id="path2"
     inkscape:connector-curvature="0"
     style="stroke-width:1.43473339" />
  <path
     d="M 8.3214539,0.00237535 V 4.1631023 L 36.729176,8.1803559 V 38.166285 l 4.160727,0.573893 V 4.5935223 Z M 0,40.892278 32.568449,45.483425 V 11.336769 L 0,6.7456225 Z"
     id="path4"
     style="fill:#cc0000;fill-opacity:1;stroke-width:1.43473339"
     inkscape:connector-curvature="0" />
  <path
     d="m 70.588885,41.322698 c -2.725994,0 -5.882407,-0.43042 -8.464927,-1.434733 v -6.312827 c 0.717366,-0.143474 1.72168,-0.143474 2.295573,-0.143474 0.717367,0 1.72168,0 2.295573,0.143474 l 0.430421,2.725993 c 0.86084,0.286947 2.295573,0.43042 3.730306,0.43042 3.012941,0 4.447674,-1.29126 4.447674,-3.586833 0,-5.451987 -13.056074,-4.734621 -13.056074,-13.629968 0,-5.59546 4.447673,-8.751874 10.760501,-8.751874 2.295573,0 5.021567,0.286947 7.030193,0.86084 v 6.599774 c -0.717366,0.143473 -1.72168,0.143473 -2.295573,0.143473 -0.717367,0 -1.865154,-0.143473 -2.439047,-0.143473 l -0.286947,-2.725994 c -0.717366,-0.143473 -1.72168,-0.143473 -2.725993,-0.143473 -3.156414,0 -4.3042,1.29126 -4.3042,3.586834 0,4.591147 13.056074,4.447673 13.056074,13.486494 0,5.59546 -4.160727,8.895347 -10.473554,8.895347 z m 35.724865,-0.43042 H 85.797059 l -0.143473,-2.008627 c 0,-0.573893 0,-1.434733 0.143473,-2.008627 l 3.01294,-0.43042 V 15.927916 l -3.01294,-0.43042 -0.143473,-2.008626 c 0,-0.573894 0,-1.434734 0.143473,-2.008627 H 97.274927 L 97.4184,13.48887 c 0,0.573893 0,1.434733 -0.143473,2.008626 l -3.012941,0.43042 v 20.516688 h 6.743244 l 0.28695,-2.725993 c 0.71737,-0.143473 1.86515,-0.143473 2.43905,-0.143473 0.71736,0 1.72168,0 2.29557,0.143473 v 7.173667 z m 30.1294,-25.394782 -2.43905,0.43042 v 14.203861 c 0,7.891034 -3.87378,11.334394 -11.04745,11.334394 -7.60408,0 -11.04744,-3.44336 -11.04744,-11.334394 V 15.927916 l -2.43905,-0.43042 -0.14347,-2.008626 c 0,-0.573894 0,-1.434734 0.14347,-2.008627 h 10.33008 c 0.14347,0.573893 0.14347,1.434733 0.14347,2.008627 0,0.573893 0,1.434733 -0.14347,2.008626 l -2.43905,0.43042 v 14.203861 c 0,4.734621 1.43474,6.599774 5.59546,6.599774 4.30421,0 5.73894,-1.865153 5.73894,-6.599774 V 15.927916 l -2.43905,-0.43042 c -0.14347,-0.573893 -0.14347,-1.434733 -0.14347,-2.008626 0,-0.573894 0,-1.434734 0.14347,-2.008627 h 10.04314 c 0.14347,0.573893 0.14347,1.434733 0.14347,2.008627 0.14347,0.43042 0,1.29126 0,2.008626 z M 153.373,41.179225 c -3.01294,0 -8.32145,-0.143474 -11.90828,-0.286947 l -0.14348,-2.008627 c 0,-0.573893 0,-1.434733 0.14348,-2.008627 l 3.01294,-0.43042 V 15.927916 l -3.01294,-0.43042 -0.14348,-2.008626 c 0,-0.573894 0,-1.434734 0.14348,-2.008627 3.58683,-0.143474 7.74756,-0.286947 11.47786,-0.286947 6.74325,0 10.47356,2.295574 10.47356,7.891034 0,3.01294 -1.72168,5.308514 -4.01726,6.312827 v 0.286947 c 3.15642,1.004313 4.8781,3.44336 4.8781,6.88672 0,6.312827 -4.73462,8.608401 -10.90398,8.608401 z M 153.22953,15.21055 c -0.86084,0 -2.43905,0 -3.44336,0.143473 v 8.321454 h 4.01725 c 2.43905,0 4.01726,-1.434733 4.01726,-4.3042 0,-2.869467 -1.57821,-4.160727 -4.59115,-4.160727 z m 0.57389,12.625654 h -4.01725 v 8.895347 l 3.73031,0.143473 c 3.44336,0 5.02156,-1.434733 5.02156,-4.73462 0,-2.869467 -1.72168,-4.3042 -4.73462,-4.3042 z"
     id="path6"
     inkscape:connector-curvature="0"
     style="stroke-width:1.43473339" />
</svg>
