<?xml version="1.0" encoding="UTF-8" standalone="no"?>
<svg
   xmlns:dc="http://purl.org/dc/elements/1.1/"
   xmlns:cc="http://creativecommons.org/ns#"
   xmlns:rdf="http://www.w3.org/1999/02/22-rdf-syntax-ns#"
   xmlns:svg="http://www.w3.org/2000/svg"
   xmlns="http://www.w3.org/2000/svg"
   xmlns:sodipodi="http://sodipodi.sourceforge.net/DTD/sodipodi-0.dtd"
   xmlns:inkscape="http://www.inkscape.org/namespaces/inkscape"
   height="48"
   width="48"
   version="1.1">
  <path
     d="m 23.999999,21.148865 q -3.665744,0 -6.109573,-2.44383 -2.443831,-2.44383 -2.443831,-6.191036 0,-3.6657438 2.443831,-6.068843 2.443829,-2.4030993 6.109573,-2.4030993 3.665745,0 6.109576,2.4030993 2.443828,2.4030992 2.443828,6.068843 0,3.747206 -2.443828,6.191036 -2.443831,2.44383 -6.109576,2.44383 z M 2.1684539,43.957943 v -3.828667 q 0,-1.873603 1.1404537,-3.421362 1.1404535,-1.547758 3.0140576,-2.443829 4.6432748,-2.036525 9.0421688,-3.095517 4.398893,-1.058995 8.634865,-1.058995 4.235973,0 8.634865,1.058995 4.398895,1.058992 8.960709,3.095517 1.955065,0.896071 3.095518,2.443829 1.140455,1.547759 1.140455,3.421362 v 3.828667 z M 3.9605952,42.165802 H 44.039403 v -2.036526 q 0,-1.221916 -0.85534,-2.362368 -0.855341,-1.140454 -2.403099,-1.955065 -4.154511,-2.036524 -8.309021,-2.973326 -4.154511,-0.936801 -8.471944,-0.936801 -4.317432,0 -8.512673,0.936801 -4.195242,0.936802 -8.2682903,2.973326 -1.5477594,0.814611 -2.4031,1.955065 -0.8553405,1.140452 -0.8553405,2.362368 z M 23.999999,19.356723 q 2.851135,0 4.806199,-1.955064 1.955063,-1.955064 1.955063,-4.806199 0,-2.8511336 -1.955063,-4.8061976 -1.955064,-1.9550639 -4.806199,-1.9550639 -2.851135,0 -4.806198,1.9550639 -1.955063,1.955064 -1.955063,4.8061976 0,2.851135 1.955063,4.806199 1.955063,1.955064 4.806198,1.955064 z m 0,-6.761263 q 0,0 0,0 0,0 0,0 0,0 0,0 0,0 0,0 0,0 0,0 0,0 0,0 0,0 0,0 0,0 0,0 z m 0,29.570342 q 0,0 0,0 0,0 0,0 0,0 0,0 0,0 0,0 0,0 0,0 0,0 0,0 0,0 0,0 0,0 0,0 z"
     style="fill:#828282;fill-opacity:1" />
</svg>
