<?xml version="1.0" encoding="UTF-8" standalone="no"?>
<!-- Created with Inkscape (http://www.inkscape.org/) -->

<svg
   xmlns:dc="http://purl.org/dc/elements/1.1/"
   xmlns:cc="http://creativecommons.org/ns#"
   xmlns:rdf="http://www.w3.org/1999/02/22-rdf-syntax-ns#"
   xmlns:svg="http://www.w3.org/2000/svg"
   xmlns="http://www.w3.org/2000/svg"
   xmlns:sodipodi="http://sodipodi.sourceforge.net/DTD/sodipodi-0.dtd"
   xmlns:inkscape="http://www.inkscape.org/namespaces/inkscape"
   width="24"
   height="24"
   viewBox="0 0 6.3499999 6.3500002"
   version="1.1"
   id="svg8"
   inkscape:export-filename="/home/sieber/Schreibtisch/none.png"
   inkscape:export-xdpi="96"
   inkscape:export-ydpi="96"
   inkscape:version="0.92.3 (2405546, 2018-03-11)"
   sodipodi:docname="connected.svg">
  <defs
     id="defs2" />
  <sodipodi:namedview
     id="base"
     pagecolor="#ffffff"
     bordercolor="#666666"
     borderopacity="1.0"
     inkscape:pageopacity="0.0"
     inkscape:pageshadow="2"
     inkscape:zoom="17.26"
     inkscape:cx="-7.7852679"
     inkscape:cy="16.409917"
     inkscape:document-units="mm"
     inkscape:current-layer="layer1"
     showgrid="false"
     units="px"
     inkscape:window-width="1920"
     inkscape:window-height="1140"
     inkscape:window-x="0"
     inkscape:window-y="0"
     inkscape:window-maximized="1" />
  <metadata
     id="metadata5">
    <rdf:RDF>
      <cc:Work
         rdf:about="">
        <dc:format>image/svg+xml</dc:format>
        <dc:type
           rdf:resource="http://purl.org/dc/dcmitype/StillImage" />
        <dc:title />
      </cc:Work>
    </rdf:RDF>
  </metadata>
  <g
     inkscape:label="Ebene 1"
     inkscape:groupmode="layer"
     id="layer1"
     transform="translate(0,-290.64998)">
    <g
       id="g832"
       transform="matrix(0.94448958,0,0,0.94448958,-0.29805749,16.815839)">
      <path
         sodipodi:nodetypes="ccccccccc"
         inkscape:connector-curvature="0"
         id="path860"
         d="m 2.8279432,292.1956 1.9669083,1.9379 c 0,0 0.9457405,-0.71228 0.9457405,-1.49114 0,-0.35436 -0.2436877,-0.75427 -0.2436877,-0.75427 l 0.7948862,-0.80069 -0.3945422,-0.40035 -0.789084,0.80069 c 0,0 -0.2027981,-0.23208 -0.7542714,-0.23208 -0.8123132,0 -1.5259497,0.93994 -1.5259497,0.93994 z"
         style="fill:#5cb85c;fill-opacity:1;fill-rule:evenodd;stroke:none;stroke-width:0.075866px;stroke-linecap:butt;stroke-linejoin:miter;stroke-opacity:0.81818183" />
      <path
         sodipodi:nodetypes="ccccccccc"
         inkscape:connector-curvature="0"
         id="path860-5"
         d="m 4.5264152,294.38396 -1.9669083,-1.9379 c 0,0 -0.9457407,0.71228 -0.9457407,1.49114 0,0.35436 0.2436879,0.75427 0.2436879,0.75427 l -0.7948861,0.80069 0.3945422,0.40035 0.7890839,-0.80069 c 0,0 0.2027981,0.23208 0.7542714,0.23208 0.8123132,0 1.5259497,-0.93994 1.5259497,-0.93994 z"
         style="fill:#5cb85c;fill-opacity:1;fill-rule:evenodd;stroke:none;stroke-width:0.07586601px;stroke-linecap:butt;stroke-linejoin:miter;stroke-opacity:0.81818183" />
    </g>
  </g>
</svg>
