<?xml version="1.0" encoding="UTF-8" standalone="no"?>
<!-- Created with Inkscape (http://www.inkscape.org/) -->

<svg
   xmlns:dc="http://purl.org/dc/elements/1.1/"
   xmlns:cc="http://creativecommons.org/ns#"
   xmlns:rdf="http://www.w3.org/1999/02/22-rdf-syntax-ns#"
   xmlns:svg="http://www.w3.org/2000/svg"
   xmlns="http://www.w3.org/2000/svg"
   xmlns:sodipodi="http://sodipodi.sourceforge.net/DTD/sodipodi-0.dtd"
   xmlns:inkscape="http://www.inkscape.org/namespaces/inkscape"
   width="24"
   height="24"
   viewBox="0 0 6.3499999 6.3500002"
   version="1.1"
   id="svg8"
   inkscape:export-filename="/home/sieber/Schreibtisch/none.png"
   inkscape:export-xdpi="96"
   inkscape:export-ydpi="96"
   inkscape:version="0.92.3 (2405546, 2018-03-11)"
   sodipodi:docname="disabled.svg">
  <defs
     id="defs2" />
  <sodipodi:namedview
     id="base"
     pagecolor="#ffffff"
     bordercolor="#666666"
     borderopacity="1.0"
     inkscape:pageopacity="0.0"
     inkscape:pageshadow="2"
     inkscape:zoom="17.26"
     inkscape:cx="-15.906861"
     inkscape:cy="16.409917"
     inkscape:document-units="mm"
     inkscape:current-layer="layer1"
     showgrid="false"
     units="px"
     inkscape:window-width="1920"
     inkscape:window-height="1170"
     inkscape:window-x="1920"
     inkscape:window-y="0"
     inkscape:window-maximized="1" />
  <metadata
     id="metadata5">
    <rdf:RDF>
      <cc:Work
         rdf:about="">
        <dc:format>image/svg+xml</dc:format>
        <dc:type
           rdf:resource="http://purl.org/dc/dcmitype/StillImage" />
        <dc:title />
      </cc:Work>
    </rdf:RDF>
  </metadata>
  <g
     inkscape:label="Ebene 1"
     inkscape:groupmode="layer"
     id="layer1"
     transform="translate(0,-290.64998)">
    <path
       style="fill:#b90000;fill-opacity:1;fill-rule:evenodd;stroke:none;stroke-width:0.075866px;stroke-linecap:butt;stroke-linejoin:miter;stroke-opacity:0.81818183"
       d="m 1.5299192,295.85823 0.7863005,-0.80371 c 0,0 0.3815068,0.21959 0.7936187,0.21959 0.852907,0.0174 1.470435,-0.94908 1.470435,-0.94908 l -0.2867185,-0.27349 0.8995213,-0.89953 c 0,0 0.059713,-0.10221 -0.041873,-0.20383 -0.1019094,-0.1019 -0.2069304,-0.0174 -0.2069304,-0.0174 l -0.8704261,0.87043 -0.8750279,-0.87503 0.872727,-0.87272 c 0,0 0.075428,-0.12918 -0.011605,-0.21621 -0.098806,-0.0988 -0.2333718,-0.006 -0.2333718,-0.006 l -0.8727271,0.87273 -0.3215309,-0.32153 c 0,0 -0.9468368,0.64423 -0.9468368,1.52932 0,0.46552 0.2441423,0.71164 0.2441423,0.71164 l -0.7901282,0.81357 z"
       id="path858"
       inkscape:connector-curvature="0"
       sodipodi:nodetypes="ccccccccccccccccccc" />
  </g>
</svg>
