<?xml version="1.0" encoding="UTF-8" standalone="no"?>
<!-- Created with Inkscape (http://www.inkscape.org/) -->

<svg
   xmlns:dc="http://purl.org/dc/elements/1.1/"
   xmlns:cc="http://creativecommons.org/ns#"
   xmlns:rdf="http://www.w3.org/1999/02/22-rdf-syntax-ns#"
   xmlns:svg="http://www.w3.org/2000/svg"
   xmlns="http://www.w3.org/2000/svg"
   xmlns:sodipodi="http://sodipodi.sourceforge.net/DTD/sodipodi-0.dtd"
   xmlns:inkscape="http://www.inkscape.org/namespaces/inkscape"
   id="svg2"
   version="1.1"
   inkscape:version="0.91 r13725"
   xml:space="preserve"
   width="808.83752"
   height="230.58749"
   viewBox="0 0 808.83752 230.58749"
   sodipodi:docname="logo.svg"><metadata
     id="metadata8"><rdf:RDF><cc:Work
         rdf:about=""><dc:format>image/svg+xml</dc:format><dc:type
           rdf:resource="http://purl.org/dc/dcmitype/StillImage" /><dc:title></dc:title></cc:Work></rdf:RDF></metadata><defs
     id="defs6" /><sodipodi:namedview
     pagecolor="#ffffff"
     bordercolor="#666666"
     borderopacity="1"
     objecttolerance="10"
     gridtolerance="10"
     guidetolerance="10"
     inkscape:pageopacity="0"
     inkscape:pageshadow="2"
     inkscape:window-width="1897"
     inkscape:window-height="994"
     id="namedview4"
     showgrid="false"
     inkscape:zoom="0.50566398"
     inkscape:cx="408.37396"
     inkscape:cy="115.29375"
     inkscape:window-x="0"
     inkscape:window-y="0"
     inkscape:window-maximized="0"
     inkscape:current-layer="g10" /><g
     id="g10"
     inkscape:groupmode="layer"
     inkscape:label="ink_ext_XXXXXX"
     transform="matrix(1.25,0,0,-1.25,0,230.5875)"><path
       inkscape:connector-curvature="0"
       id="path14"
       style="fill:#231f20;fill-opacity:1;fill-rule:nonzero;stroke:none"
       d="m 203.082,0.630078 -7.555,0 -7.097,24.955122 c -0.229,0.8589 -0.573,2.4027 -0.687,3.9488 l -0.458,0 c -0.115,-1.5461 -0.458,-3.0899 -0.687,-4.0059 l -6.754,-24.898022 -7.555,0 C 169.256,13.05 166.508,26.2719 164.563,38.8629 c 2.289,0.4012 4.979,0.6301 6.868,0.6301 l 4.693,-25.4129 c 0.229,-1.3731 0.4,-2.861 0.4,-4.0063 l 0.516,0 c 0.114,1.1453 0.4,2.6903 0.744,3.8922 l 6.983,25.241 6.525,0 6.696,-25.2992 c 0.286,-1.2008 0.573,-2.6887 0.687,-3.834 l 0.515,0 c 0.057,1.2024 0.286,2.6332 0.515,3.834 l 4.98,25.5852 c 1.831,0 4.464,-0.2289 6.295,-0.6301 -2.117,-12.6488 -4.922,-25.641 -7.898,-38.232822" /><path
       inkscape:connector-curvature="0"
       id="path16"
       style="fill:#231f20;fill-opacity:1;fill-rule:nonzero;stroke:none"
       d="m 219.396,0.630078 0,29.876922 6.524,0 0,-29.876922 -6.524,0 z m 3.205,33.998022 c -2.461,0 -3.663,1.8309 -3.663,3.8348 0,2.0031 1.202,3.9492 3.72,3.9492 2.518,0 3.72,-1.8883 3.72,-3.9492 0,-2.0598 -1.259,-3.8348 -3.777,-3.8348" /><path
       inkscape:connector-curvature="0"
       id="path18"
       style="fill:#231f20;fill-opacity:1;fill-rule:nonzero;stroke:none"
       d="m 251.219,23.9828 c -0.687,0.1711 -1.775,0.2863 -2.748,0.2863 -2.404,0 -4.121,-0.573 -6.01,-2.2902 l 0,-21.348822 -6.524,0 0,29.648822 c 1.831,0.2281 4.464,0.4 6.524,0.4 l 0,-3.8348 0.344,0 c 2.976,3.893 4.922,4.2348 6.811,4.2348 0.572,0 1.488,-0.1141 2.175,-0.3418 0,-2.2332 -0.229,-4.5801 -0.572,-6.7543" /><path
       inkscape:connector-curvature="0"
       id="path20"
       style="fill:#231f20;fill-opacity:1;fill-rule:nonzero;stroke:none"
       d="m 284.127,37.1469 c -0.572,0.114 -2.175,0.1722 -2.976,0.1722 -2.347,0 -3.205,-1.1461 -3.205,-3.607 l 0,-3.2051 6.524,0 c 0,-1.889 -0.171,-3.8351 -0.457,-5.7242 l -6.067,0 0,-24.152722 -6.525,0 0,24.152722 -3.434,0 0,5.7242 3.434,0 0,2.6899 c 0,6.2961 4.407,10.016 9.615,10.016 1.145,0 2.805,-0.1141 3.492,-0.2277 0,-1.9473 -0.115,-3.893 -0.401,-5.8383" /><path
       inkscape:connector-curvature="0"
       id="path22"
       style="fill:#231f20;fill-opacity:1;fill-rule:nonzero;stroke:none"
       d="m 307.879,33.7699 c -2.289,0 -3.549,1.602 -3.549,3.6629 0,2.0031 1.202,3.7203 3.607,3.7203 2.289,0 3.491,-1.6601 3.491,-3.7203 0,-2.118 -1.202,-3.6629 -3.549,-3.6629 z m -10.703,0 c -2.289,0 -3.491,1.602 -3.491,3.6629 0,2.0031 1.145,3.7203 3.549,3.7203 2.347,0 3.548,-1.6601 3.548,-3.7203 0,-2.118 -1.259,-3.6629 -3.606,-3.6629 z m 10.703,-33.139822 0,2.575002 -0.344,0 c -2.689,-2.231252 -5.265,-3.1472675 -8.183,-3.1472675 -4.58,0 -8.643,2.3460975 -8.643,9.2152375 l 0,21.00585 c 1.889,0.2859 4.464,0.4 6.525,0.4 l 0,-20.6617 c 0,-2.69103 1.202,-4.17931 4.807,-4.17931 2.232,0 4.121,0.57305 5.838,1.54609 l 0,22.89492 c 1.889,0.2859 4.465,0.4 6.525,0.4 l 0,-30.048822 -6.525,0" /><path
       inkscape:connector-curvature="0"
       id="path24"
       style="fill:#231f20;fill-opacity:1;fill-rule:nonzero;stroke:none"
       d="m 341.649,0.630078 0,20.662122 c 0,2.3469 -0.744,4.0066 -4.463,4.0066 -2.462,0 -4.408,-0.6867 -6.24,-1.9457 l 0,-22.723022 -6.524,0 0,42.125822 c 1.831,0.2293 4.464,0.457 6.524,0.457 l 0,-15.5109 0.344,0 c 2.747,2.4609 5.208,3.3769 8.242,3.3769 5.094,0 8.643,-2.7469 8.643,-9.157 l 0,-21.291822 -6.526,0" /><path
       inkscape:connector-curvature="0"
       id="path26"
       style="fill:#231f20;fill-opacity:1;fill-rule:nonzero;stroke:none"
       d="m 373.301,23.9828 c -0.687,0.1711 -1.775,0.2863 -2.747,0.2863 -2.405,0 -4.121,-0.573 -6.01,-2.2902 l 0,-21.348822 -6.524,0 0,29.648822 c 1.831,0.2281 4.463,0.4 6.524,0.4 l 0,-3.8348 0.344,0 c 2.975,3.893 4.922,4.2348 6.81,4.2348 0.573,0 1.489,-0.1141 2.175,-0.3418 0,-2.2332 -0.228,-4.5801 -0.572,-6.7543" /><path
       inkscape:connector-curvature="0"
       id="path28"
       style="fill:#231f20;fill-opacity:1;fill-rule:nonzero;stroke:none"
       d="m 385.607,18.373 10.36,0 c 0.057,0.3442 0.057,1.259 0.057,1.6032 0,4.2347 -1.66,6.1238 -4.979,6.1238 -3.435,0 -5.38,-2.2891 -5.438,-7.727 z m 16.771,-4.5789 -16.828,0 0,-0.4 c 0,-4.86519 1.546,-7.15504 7.212,-7.15504 2.69,0 6.124,0.80078 7.898,1.83203 0.63,-1.71718 1.202,-4.12226 1.488,-6.125 -2.46,-1.201949 -6.696,-1.8882775 -9.501,-1.8882775 -9.157,0 -14.251,5.0371075 -14.251,15.1101875 0,10.7601 5.38,15.9109 12.763,15.9109 7.842,0 11.447,-4.9219 11.447,-12.7629 0,-1.259 -0.057,-3.148 -0.228,-4.5219" /><path
       inkscape:connector-curvature="0"
       id="path30"
       style="fill:#231f20;fill-opacity:1;fill-rule:nonzero;stroke:none"
       d="m 427.905,0.630078 0,20.662122 c 0,2.575 -1.03,4.0066 -4.464,4.0066 -2.346,0 -4.35,-0.6297 -6.239,-1.9457 l 0,-22.723022 -6.524,0 0,29.648822 c 1.831,0.2281 4.464,0.4 6.524,0.4 l 0,-2.9769 0.344,0 c 2.975,2.7468 5.494,3.3769 8.242,3.3769 4.636,0 8.643,-2.3461 8.643,-9.2148 l 0,-21.234022 -6.526,0" /><path
       inkscape:connector-curvature="0"
       id="path32"
       style="fill:#231f20;fill-opacity:1;fill-rule:nonzero;stroke:none"
       d="m 492.753,0.630078 -7.555,0 -7.097,24.955122 c -0.229,0.8589 -0.573,2.4027 -0.687,3.9488 l -0.458,0 c -0.114,-1.5461 -0.458,-3.0899 -0.686,-4.0059 l -6.754,-24.898022 -7.555,0 C 458.927,13.05 456.18,26.2719 454.233,38.8629 c 2.29,0.4012 4.98,0.6301 6.869,0.6301 l 4.693,-25.4129 c 0.229,-1.3731 0.401,-2.861 0.401,-4.0063 l 0.515,0 c 0.114,1.1453 0.4,2.6903 0.744,3.8922 l 6.983,25.241 6.525,0 6.696,-25.2992 c 0.286,-1.2008 0.572,-2.6887 0.688,-3.834 l 0.514,0 c 0.058,1.2024 0.286,2.6332 0.515,3.834 l 4.98,25.5852 c 1.832,0 4.464,-0.2289 6.296,-0.6301 -2.118,-12.6488 -4.923,-25.641 -7.899,-38.232822" /><path
       inkscape:connector-curvature="0"
       id="path34"
       style="fill:#231f20;fill-opacity:1;fill-rule:nonzero;stroke:none"
       d="m 508.501,0.630078 0,29.876922 6.524,0 0,-29.876922 -6.524,0 z m 3.205,33.998022 c -2.461,0 -3.663,1.8309 -3.663,3.8348 0,2.0031 1.202,3.9492 3.72,3.9492 2.518,0 3.72,-1.8883 3.72,-3.9492 0,-2.0598 -1.258,-3.8348 -3.777,-3.8348" /><path
       inkscape:connector-curvature="0"
       id="path36"
       style="fill:#231f20;fill-opacity:1;fill-rule:nonzero;stroke:none"
       d="m 531.967,0.0578125 c -3.205,0 -6.754,0.7441405 -9.157,2.0601575 0.458,2.11797 0.858,3.89219 1.544,5.89609 2.347,-1.26015 5.896,-2.0039 8.758,-2.0039 2.576,0 3.606,1.14375 3.606,3.03398 0,4.97966 -13.565,2.51796 -13.565,12.41996 0,6.4679 5.609,9.6148 12.019,9.6148 1.946,0 4.923,-0.2859 7.212,-0.916 -0.057,-1.7731 -0.458,-3.9488 -0.915,-5.8938 -2.061,0.686 -5.438,1.1438 -7.9,1.1438 -2.403,0 -3.548,-1.0879 -3.548,-3.1481 0,-4.6359 13.451,-2.232 13.451,-12.93472 0,-6.46719 -5.552,-9.2722675 -11.505,-9.2722675" /><path
       inkscape:connector-curvature="0"
       id="path38"
       style="fill:#231f20;fill-opacity:1;fill-rule:nonzero;stroke:none"
       d="m 558.124,0.0578125 c -3.205,0 -6.754,0.7441405 -9.157,2.0601575 0.458,2.11797 0.858,3.89219 1.545,5.89609 2.346,-1.26015 5.895,-2.0039 8.758,-2.0039 2.575,0 3.605,1.14375 3.605,3.03398 0,4.97966 -13.564,2.51796 -13.564,12.41996 0,6.4679 5.608,9.6148 12.018,9.6148 1.946,0 4.923,-0.2859 7.212,-0.916 -0.057,-1.7731 -0.458,-3.9488 -0.915,-5.8938 -2.061,0.686 -5.438,1.1438 -7.899,1.1438 -2.404,0 -3.548,-1.0879 -3.548,-3.1481 0,-4.6359 13.45,-2.232 13.45,-12.93472 0,-6.46719 -5.552,-9.2722675 -11.505,-9.2722675" /><path
       inkscape:connector-curvature="0"
       id="path40"
       style="fill:#231f20;fill-opacity:1;fill-rule:nonzero;stroke:none"
       d="m 582.564,18.373 10.36,0 c 0.057,0.3442 0.057,1.259 0.057,1.6032 0,4.2347 -1.66,6.1238 -4.979,6.1238 -3.435,0 -5.38,-2.2891 -5.438,-7.727 z m 16.771,-4.5789 -16.828,0 0,-0.4 c 0,-4.86519 1.546,-7.15504 7.212,-7.15504 2.69,0 6.124,0.80078 7.898,1.83203 0.63,-1.71718 1.202,-4.12226 1.488,-6.125 -2.46,-1.201949 -6.696,-1.8882775 -9.501,-1.8882775 -9.157,0 -14.251,5.0371075 -14.251,15.1101875 0,10.7601 5.38,15.9109 12.763,15.9109 7.842,0 11.447,-4.9219 11.447,-12.7629 0,-1.259 -0.057,-3.148 -0.228,-4.5219" /><path
       inkscape:connector-curvature="0"
       id="path42"
       style="fill:#231f20;fill-opacity:1;fill-rule:nonzero;stroke:none"
       d="m 624.862,0.630078 0,20.662122 c 0,2.575 -1.03,4.0066 -4.464,4.0066 -2.346,0 -4.35,-0.6297 -6.239,-1.9457 l 0,-22.723022 -6.524,0 0,29.648822 c 1.831,0.2281 4.464,0.4 6.524,0.4 l 0,-2.9769 0.344,0 c 2.976,2.7468 5.494,3.3769 8.242,3.3769 4.636,0 8.643,-2.3461 8.643,-9.2148 l 0,-21.234022 -6.526,0" /><path
       inkscape:connector-curvature="0"
       id="path44"
       style="fill:#231f20;fill-opacity:1;fill-rule:nonzero;stroke:none"
       d="m 643.407,0 c -2.175,0 -3.72,1.20195 -3.72,3.77891 0,2.46015 1.602,3.77695 3.72,3.77695 2.003,0 3.663,-1.3168 3.663,-3.77695 C 647.07,1.20195 645.41,0 643.407,0" /><path
       inkscape:connector-curvature="0"
       id="path46"
       style="fill:#ed1c24;fill-opacity:1;fill-rule:nonzero;stroke:none"
       d="m 22.1094,184.467 0,-11.105 75.4851,-10.574 0,-79.8239 11.1905,-1.5672 0,90.9281 -86.6756,12.142" /><path
       inkscape:connector-curvature="0"
       id="path48"
       style="fill:#ed1c24;fill-opacity:1;fill-rule:nonzero;stroke:none"
       d="m 0,75.6328 86.6758,-12.143 0,90.9302 L 0,166.562 0,75.6328" /><path
       inkscape:connector-curvature="0"
       id="path50"
       style="fill:#231f20;fill-opacity:1;fill-rule:nonzero;stroke:none"
       d="m 187.84,74.4371 c -7.132,0 -15.667,1.0508 -22.447,3.975 l 0,16.718 c 1.753,0.2336 4.442,0.3508 6.079,0.3508 1.754,0 4.559,-0.1172 6.196,-0.3508 l 1.169,-7.366 c 2.455,-0.8188 6.08,-1.2856 10.055,-1.2856 8.067,0 11.691,3.3906 11.691,9.7031 0,14.3814 -34.723,12.6274 -34.723,36.2434 0,14.848 11.691,23.149 28.76,23.149 6.08,0 13.212,-0.701 18.59,-2.104 l 0,-17.654 c -1.754,-0.234 -4.56,-0.468 -6.196,-0.468 -1.754,0 -4.794,0.234 -6.548,0.468 l -0.935,7.248 c -1.754,0.234 -4.677,0.468 -7.132,0.468 -8.535,0 -11.34,-3.624 -11.34,-9.47 0,-12.393 34.722,-11.808 34.722,-36.0093 0,-14.8476 -10.989,-23.6156 -27.941,-23.6156" /><path
       inkscape:connector-curvature="0"
       id="path52"
       style="fill:#231f20;fill-opacity:1;fill-rule:nonzero;stroke:none"
       d="m 282.821,75.6059 -54.364,0 c -0.118,1.6363 -0.235,3.857 -0.235,5.4953 0,1.6367 0.117,3.8582 0.235,5.4945 l 7.95,1.1684 0,54.4819 -7.95,1.169 c -0.118,1.637 -0.235,3.858 -0.235,5.495 0,1.636 0.117,3.858 0.235,5.495 l 30.63,0 c 0.118,-1.637 0.235,-3.859 0.235,-5.495 0,-1.637 -0.117,-3.858 -0.235,-5.495 l -8.066,-1.169 0,-54.7144 18.121,0 0.936,7.3653 c 1.753,0.2332 4.793,0.3496 6.547,0.3496 1.753,0 4.442,-0.1164 6.196,-0.3496 l 0,-19.291" /><path
       inkscape:connector-curvature="0"
       id="path54"
       style="fill:#231f20;fill-opacity:1;fill-rule:nonzero;stroke:none"
       d="m 362.989,143.415 -6.664,-1.169 0,-37.646 c 0,-21.1609 -10.171,-30.1629 -29.462,-30.1629 -20.225,0 -29.463,9.002 -29.463,30.1629 l 0,37.646 -6.664,1.169 c -0.117,1.637 -0.233,3.858 -0.233,5.495 0,1.636 0.116,3.858 0.233,5.495 l 27.593,0 c 0.234,-1.637 0.351,-3.859 0.351,-5.495 0,-1.637 -0.117,-3.858 -0.351,-5.495 l -6.313,-1.169 0,-37.646 c 0,-12.627 3.741,-17.4199 15.081,-17.4199 11.341,0 15.316,4.7929 15.316,17.4199 l 0,37.646 -6.313,1.169 c -0.235,1.637 -0.351,3.858 -0.351,5.495 0,1.636 0.116,3.858 0.351,5.495 l 26.889,0 c 0.235,-1.637 0.351,-3.859 0.351,-5.495 0,-1.637 -0.116,-3.858 -0.351,-5.495" /><path
       inkscape:connector-curvature="0"
       id="path56"
       style="fill:#231f20;fill-opacity:1;fill-rule:nonzero;stroke:none"
       d="m 409.365,110.329 -10.873,0 0,-23.8505 c 2.222,-0.1172 7.483,-0.2344 10.055,-0.2344 9.236,0 13.445,3.8586 13.445,12.5098 0,7.9501 -4.794,11.5751 -12.627,11.5751 z m -1.636,33.553 c -2.456,0 -6.314,-0.116 -9.237,-0.233 l 0,-22.33 10.756,0 c 6.548,0 10.757,3.741 10.757,11.574 0,7.716 -4.209,10.989 -12.276,10.989 z m 0.35,-68.9781 c -8.183,0 -22.33,0.234 -31.8,0.702 -0.117,1.6363 -0.234,3.857 -0.234,5.4953 0,1.6367 0.117,3.8582 0.234,5.4945 l 7.95,1.1684 0,54.4819 -7.95,1.169 c -0.117,1.637 -0.234,3.858 -0.234,5.495 0,1.636 0.117,3.858 0.234,5.495 9.703,0.468 20.576,0.701 30.631,0.701 18.005,0 27.943,-6.079 27.943,-20.81 0,-8.067 -4.677,-14.146 -10.756,-16.953 l 0,-0.934 c 8.3,-2.689 12.977,-9.237 12.977,-18.3563 0,-16.9515 -12.393,-23.1488 -28.995,-23.1488" /></g></svg>